<svg xmlns="http://www.w3.org/2000/svg" viewBox="0 0 800 600"><defs><style>.cls-1{fill:#384b5f;}.cls-2{fill:#009688;}.cls-3{fill:#e9435a;}.cls-4{fill:#03a9f4;}.cls-5{fill:#ff9800;}.cls-6{fill:#00bcd4;}.cls-7{fill:#efefef;}.cls-8{fill:#84cead;}.cls-9{fill:#efad42;}.cls-10{fill:#4aadad;}</style></defs><title>background</title><g id="Layer_1" data-name="Layer 1"><rect class="cls-1" width="800" height="600"/></g><g id="Layer_2" data-name="Layer 2"><path class="cls-2" d="M130.13,201.49a7,7,0,0,1-4.77-12.13,153.07,153.07,0,0,1,13.28-11c3.55-2.6,7.25-5.07,11-7.35,4.12-2.5,8.41-4.81,12.74-6.89,2.18-1.05,4.42-2.06,6.64-3a7,7,0,0,1,5.44,12.91c-2,.85-4.05,1.76-6,2.71-3.92,1.88-7.8,4-11.53,6.24-3.41,2.07-6.77,4.31-10,6.67a136.27,136.27,0,0,0-12,9.95A7,7,0,0,1,130.13,201.49Z"/><path class="cls-3" d="M86.34,257.47a7.18,7.18,0,0,1-2.43-.44,7,7,0,0,1-4.13-9,149.07,149.07,0,0,1,16-31.29,7,7,0,0,1,11.63,7.8A134.26,134.26,0,0,0,92.91,252.9,7,7,0,0,1,86.34,257.47Z"/><path class="cls-4" d="M80.71,276.65a7,7,0,0,1-5.81-8c.45-2.87,1-5.76,1.62-8.58,1-4.57,2.22-9.14,3.63-13.57a7,7,0,0,1,13.34,4.25c-1.28,4-2.39,8.16-3.3,12.3-.56,2.57-1,5.19-1.46,7.8A7,7,0,0,1,80.71,276.65Z"/><path class="cls-3" d="M182.75,450.74a7.13,7.13,0,0,1-2-.29c-4-1.18-8.06-2.56-12-4.08-3.34-1.3-6.67-2.74-9.91-4.28s-6.55-3.26-9.71-5.06a149.15,149.15,0,0,1-12.87-8.22c-3.38-2.4-6.7-5-9.88-7.68-3.84-3.26-7.56-6.74-11.05-10.36-2.16-2.24-4.28-4.58-6.31-7a7,7,0,0,1,10.67-9.07c1.83,2.16,3.76,4.28,5.72,6.31a137.12,137.12,0,0,0,10,9.4c2.88,2.44,5.9,4.78,9,7a138.29,138.29,0,0,0,11.68,7.46c2.86,1.62,5.81,3.16,8.79,4.58s6,2.7,9,3.87c3.54,1.38,7.19,2.63,10.84,3.7a7,7,0,0,1-2,13.72Z"/><path class="cls-5" d="M217.56,457c-2-.12-4-.27-6-.47a7,7,0,1,1,1.36-13.93,137.6,137.6,0,0,0,26.46,0,7,7,0,1,1,1.34,13.94A151.63,151.63,0,0,1,217.56,457Z"/><path class="cls-6" d="M269.79,452.61c-1.91.61-3.85,1.19-5.77,1.73a7,7,0,1,1-3.75-13.49,137.92,137.92,0,0,0,24.7-9.5,7,7,0,0,1,6.27,12.52A151.13,151.13,0,0,1,269.79,452.61Z"/><path class="cls-7" d="M340.49,403.48A7,7,0,0,1,334.41,392c2.48-2.94,4.86-6,7.08-9.16s4.41-6.53,6.39-9.9A7,7,0,1,1,360,380c-2.18,3.72-4.54,7.39-7,10.92s-5.08,6.85-7.81,10.1A7,7,0,0,1,340.49,403.48Z"/><path class="cls-3" d="M316.19,424.24A7,7,0,0,1,311,411.5a135.54,135.54,0,0,0,13.78-10.21,133.26,133.26,0,0,0,9.85-9.19,7,7,0,0,1,10,9.76c-3.45,3.55-7.1,7-10.86,10.13a149,149,0,0,1-15.21,11.26A6.91,6.91,0,0,1,316.19,424.24Z"/><path class="cls-8" d="M353.33,384.42a6.92,6.92,0,0,1-3.51-.95,7,7,0,0,1-2.54-9.56c1-1.69,1.94-3.42,2.84-5.15,2.09-4,4-8.14,5.68-12.31,1.23-3.07,2.37-6.23,3.37-9.39a132.64,132.64,0,0,0,3.46-13.2c.57-2.73,1.06-5.5,1.46-8.24.35-2.41.64-4.86.86-7.3a7,7,0,1,1,13.94,1.26c-.24,2.68-.56,5.39-.94,8.05-.44,3-1,6.08-1.61,9.1a149.32,149.32,0,0,1-3.83,14.57c-1.1,3.48-2.36,7-3.72,10.36-1.85,4.61-4,9.18-6.26,13.59-1,1.91-2.06,3.83-3.14,5.69A7,7,0,0,1,353.33,384.42Z"/><path class="cls-3" d="M372.89,295.79a7,7,0,0,1-7-6.36c-.37-4.1-.94-8.22-1.68-12.24s-1.65-7.87-2.72-11.71A7,7,0,1,1,375,261.71c1.18,4.24,2.19,8.59,3,12.93s1.45,9,1.87,13.51a7,7,0,0,1-6.33,7.61Z"/><path class="cls-2" d="M359.83,246a7,7,0,0,1-6.33-4c-1.73-3.65-3.65-7.26-5.7-10.74a7,7,0,0,1,12.05-7.11c2.27,3.84,4.39,7.83,6.3,11.85a7,7,0,0,1-6.32,10Z"/><path class="cls-2" d="M410.26,352.1a7,7,0,0,1-2.44-7.08c.93-3.92,1.69-7.94,2.26-11.94a7,7,0,0,1,13.86,2c-.63,4.42-1.47,8.85-2.49,13.18a7,7,0,0,1-11.19,3.86Z"/><path class="cls-6" d="M332.29,205.79a6.94,6.94,0,0,1-5-2.13,137.34,137.34,0,0,0-12.09-11,134.64,134.64,0,0,0-65.65-28.72,138,138,0,0,0-36.66-.33,7,7,0,1,1-1.75-13.89,151.8,151.8,0,0,1,40.4.36,149.57,149.57,0,0,1,85.8,43.88,7,7,0,0,1-5,11.87Z"/><path class="cls-7" d="M183.31,492a7.94,7.94,0,0,1-2.46-.21A199.74,199.74,0,0,1,127.32,470a8,8,0,1,1,8.1-13.79,184.06,184.06,0,0,0,49.25,20A8,8,0,0,1,183.31,492Z"/><path class="cls-4" d="M88.37,443.79a8.12,8.12,0,0,1-2-1.43,200,200,0,0,1-35.15-45.88,8,8,0,0,1,14-7.8,184.08,184.08,0,0,0,32.34,42.21,8,8,0,0,1-9.15,12.9Z"/><path class="cls-3" d="M305.18,481.19a7.91,7.91,0,0,1-2.12,1.27,200.05,200.05,0,0,1-56.16,13.65,8,8,0,0,1-1.5-15.93,183.85,183.85,0,0,0,51.67-12.56,8,8,0,0,1,8.11,13.57Z"/><path class="cls-9" d="M288.31,487.18a8,8,0,0,1-2.76-15.57A185.51,185.51,0,0,0,395.18,371.18a8,8,0,0,1,14.64,6.47A201.45,201.45,0,0,1,290.71,486.76,8.08,8.08,0,0,1,288.31,487.18Z"/><path class="cls-4" d="M421,312a8,8,0,0,1-8-8,184.16,184.16,0,0,0-24.15-91.46,8,8,0,1,1,13.9-7.92A200.21,200.21,0,0,1,429,304,8,8,0,0,1,421,312Z"/><path class="cls-9" d="M327.87,141.66a8,8,0,0,1-4.49-1,183.83,183.83,0,0,0-71.49-23.39,8,8,0,1,1,1.76-15.9,199.87,199.87,0,0,1,77.7,25.42,8,8,0,0,1-3.48,14.92Z"/><path class="cls-7" d="M203.1,117.14a8,8,0,0,1-4.14,2,183.71,183.71,0,0,0-70.12,27.21A8,8,0,1,1,120.12,133a199.87,199.87,0,0,1,76.22-29.57,8,8,0,0,1,6.76,13.75Z"/><path class="cls-3" d="M52.86,398.46a8.17,8.17,0,0,1-1.49-2,200.07,200.07,0,0,1-19.51-54.4,8,8,0,1,1,15.68-3.18A184.36,184.36,0,0,0,65.49,389a8,8,0,0,1-12.63,9.51Z"/><path class="cls-10" d="M136.61,243.55a5.91,5.91,0,0,1-3.48-1.12,6,6,0,0,1-1.4-8.37,120.14,120.14,0,0,1,8.84-10.92c2.4-2.63,5-5.18,7.57-7.57a6,6,0,1,1,8.09,8.86c-2.35,2.15-4.64,4.44-6.8,6.8A104.93,104.93,0,0,0,141.5,241,6,6,0,0,1,136.61,243.55Z"/><path class="cls-10" d="M325.49,344.86a6,6,0,0,1,6.46,8.49,117.71,117.71,0,0,1-6.79,12.3c-1.9,3-4,6-6.14,8.78a6,6,0,0,1-9.51-7.31c1.95-2.53,3.8-5.19,5.51-7.89a105.9,105.9,0,0,0,6.1-11A6,6,0,0,1,325.49,344.86Z"/><path class="cls-3" d="M116.63,320a6,6,0,0,1-6-5.36A120.86,120.86,0,0,1,110,302a117.27,117.27,0,0,1,6-37.24,6,6,0,0,1,11.38,3.81,104.83,104.83,0,0,0-4.6,20.14A106.93,106.93,0,0,0,122,302a104.4,104.4,0,0,0,.61,11.34,6,6,0,0,1-5.33,6.61C117.06,320,116.85,320,116.63,320Z"/><path class="cls-5" d="M116.31,329.38a6,6,0,0,1-3.83-4.44,116.37,116.37,0,0,1-1.86-12.72,6,6,0,1,1,11.95-1.09,107.23,107.23,0,0,0,1.67,11.42,6,6,0,0,1-7.93,6.83Z"/><path class="cls-4" d="M132.3,370.26a6,6,0,0,1-2.81-2.25,119.6,119.6,0,0,1-7.34-12.65A6,6,0,0,1,132.88,350a104.11,104.11,0,0,0,6.59,11.35,6,6,0,0,1-7.17,8.92Z"/><path class="cls-6" d="M227,419a118.64,118.64,0,0,1-19.77-1.66,116.71,116.71,0,0,1-17-4.24A6,6,0,1,1,194,401.71a104.47,104.47,0,0,0,15.24,3.8,107,107,0,0,0,33.84.27,6,6,0,0,1,1.82,11.86A118.67,118.67,0,0,1,227,419Z"/><path class="cls-3" d="M184.06,410.71a116.95,116.95,0,0,1-31.9-19.23,6,6,0,0,1,7.76-9.16,105.69,105.69,0,0,0,12.72,9.23,107,107,0,0,0,31.28,12.92,6,6,0,1,1-2.75,11.68A119.72,119.72,0,0,1,184.06,410.71Z"/><path class="cls-7" d="M267.59,411.35a6,6,0,0,1-2.2-11.59,105.36,105.36,0,0,0,44.66-33.51,6,6,0,1,1,9.49,7.35,118.91,118.91,0,0,1-10,11.3,117.32,117.32,0,0,1-39.78,26A6,6,0,0,1,267.59,411.35Z"/><path class="cls-9" d="M327.09,355.63a5.87,5.87,0,0,1-2.08-.38,6,6,0,0,1-3.54-7.71,104.84,104.84,0,0,0,3.25-10.38c.65-2.53,1.21-5.12,1.66-7.7A105.32,105.32,0,0,0,328,311a6,6,0,0,1,12,0,118.49,118.49,0,0,1-1.8,20.55c-.51,2.88-1.13,5.77-1.86,8.59a116.56,116.56,0,0,1-3.62,11.57A6,6,0,0,1,327.09,355.63Z"/><path class="cls-8" d="M325.1,256a6,6,0,0,1-5.31-3.19,105.4,105.4,0,0,0-34.33-38,105,105,0,0,0-17-9.26,6,6,0,1,1,4.75-11,117.28,117.28,0,0,1,18.93,10.32,117.27,117.27,0,0,1,28.41,26.94,117.44,117.44,0,0,1,9.82,15.44,6,6,0,0,1-2.48,8.11A6.09,6.09,0,0,1,325.1,256Z"/><path class="cls-9" d="M183.57,205.82a6,6,0,0,1-2.35-11.52A116.22,116.22,0,0,1,227,185a6,6,0,0,1,0,12,105.26,105.26,0,0,0-27.7,3.69,103.79,103.79,0,0,0-13.38,4.65A6.1,6.1,0,0,1,183.57,205.82Z"/><path class="cls-3" d="M208.55,387.92a5.66,5.66,0,0,1-1.35-.16,87.73,87.73,0,0,1-55.29-39.85,6,6,0,0,1,10.23-6.27,76,76,0,0,0,47.75,34.43,6,6,0,0,1-1.34,11.85Z"/><path class="cls-8" d="M268.47,378.76a6,6,0,0,1-3-11.17A75.9,75.9,0,0,0,288.22,347a76.91,76.91,0,0,0,4.56-7,6,6,0,0,1,10.38,6,88.34,88.34,0,0,1-31.66,31.82A6,6,0,0,1,268.47,378.76Z"/><path class="cls-9" d="M302.37,275.63a6,6,0,0,1-5.52-3.63A76.33,76.33,0,0,0,267,237.38a6,6,0,1,1,6.33-10.19,88.27,88.27,0,0,1,34.52,40.07,6,6,0,0,1-3.15,7.88A5.81,5.81,0,0,1,302.37,275.63Z"/><path class="cls-7" d="M155.55,267.72a6,6,0,0,1-5.22-9,88.17,88.17,0,0,1,67.39-44.29A6,6,0,0,1,219,226.42a76.12,76.12,0,0,0-58.19,38.25A6,6,0,0,1,155.55,267.72Z"/><path class="cls-3" d="M196.74,232a6,6,0,0,1-5.63-4.17,6.47,6.47,0,0,1,3.57-8.15,83.77,83.77,0,0,1,49.9-3.36,6.36,6.36,0,0,1,4.52,7.6,6,6,0,0,1-7.18,4.79,72.49,72.49,0,0,0-43.11,2.9A5.79,5.79,0,0,1,196.74,232Z"/><path class="cls-10" d="M146.75,291.1a5.87,5.87,0,0,1-1.24-.13,6,6,0,0,1-4.64-7.1,87.25,87.25,0,0,1,12.68-30.35,6,6,0,0,1,10,6.62,75.14,75.14,0,0,0-10.94,26.19A6,6,0,0,1,146.75,291.1Z"/><path class="cls-9" d="M188.48,380.41a5.91,5.91,0,0,1-2.81-.7,88.92,88.92,0,0,1-29-24.76,88,88,0,0,1-16.27-37,6,6,0,1,1,11.8-2.15,76.12,76.12,0,0,0,39.07,53.36,6,6,0,0,1-2.83,11.29Z"/><path class="cls-7" d="M227,390a6,6,0,0,1,0-12A76.29,76.29,0,0,0,246,375.62,75.8,75.8,0,0,0,280.51,356a6,6,0,1,1,8.45,8.52A87.74,87.74,0,0,1,227,390Z"/><path class="cls-4" d="M306.42,328.51a5.93,5.93,0,0,1-1.5-.19A6,6,0,0,1,300.6,321,75.86,75.86,0,0,0,287,255.32a6,6,0,0,1,9.47-7.37A88.15,88.15,0,0,1,312.22,324,6,6,0,0,1,306.42,328.51Z"/><path class="cls-5" d="M72.5,321.37c-.21-2-.38-4-.51-6a7,7,0,1,1,14-.9,138.39,138.39,0,0,0,4.22,26.13,7,7,0,0,1-13.54,3.56A150.79,150.79,0,0,1,72.5,321.37Z"/><path class="cls-7" d="M96.8,379.65a7,7,0,0,1-6-3.48c-2.12-3.63-4.1-7.39-5.89-11.17a148.17,148.17,0,0,1-6.09-14.84c-1.34-3.85-2.53-7.8-3.55-11.76a7,7,0,0,1,13.56-3.49c.92,3.58,2,7.16,3.22,10.65A132.92,132.92,0,0,0,97.5,359c1.63,3.43,3.43,6.83,5.34,10.12a7,7,0,0,1-6,10.53Z"/><path class="cls-3" d="M381.7,180.76a7,7,0,0,1-9.24-1.83c-2.45-3.32-5.07-6.55-7.79-9.6s-5.48-5.89-8.39-8.61a7,7,0,0,1,9.59-10.21c3.21,3,6.32,6.21,9.26,9.51s5.89,6.93,8.59,10.59a7,7,0,0,1-1.48,9.79A5.07,5.07,0,0,1,381.7,180.76Z"/><path class="cls-6" d="M69.94,184.73A8,8,0,0,1,81.06,196,185.32,185.32,0,0,0,44.63,308.26a185.93,185.93,0,0,0,3.22,32.64,8,8,0,1,1-15.72,3A201.47,201.47,0,0,1,68.21,186.44,7.78,7.78,0,0,1,69.94,184.73Z"/></g></svg>